<svg id="Layer_1" data-name="Layer 1" xmlns="http://www.w3.org/2000/svg" viewBox="0 0 183.7 41.37"><title>arrow_</title><path d="M285.57,112.75c-1.52,9-8.13,16.15-16.05,20.29-9.75,5.09-21.22,5.57-32,5.25-23.51-.7-46.76-5-69.59-10.43-12.95-3.09-25.81-6.58-38.65-10.07a1.51,1.51,0,0,0-.8,2.9c23.49,6.37,47,12.76,71.08,16.72a289.55,289.55,0,0,0,36.1,3.81c11.24.43,22.93.07,33.36-4.62,9.42-4.23,17.68-12.58,19.43-23,.32-1.89-2.57-2.7-2.89-.8Z" transform="translate(-104.78 -99.99)"/><path d="M130.55,103.05l-14.8,1.71-6.91.8c-1.93.22-4.07.58-4.06,3a10.3,10.3,0,0,0,.7,2.87c.39,1.23.78,2.45,1.18,3.68q1,3.21,2.13,6.41,2.33,6.85,4.87,13.64c.67,1.79,3.57,1,2.9-.8q-4.45-11.87-8.26-24a5.88,5.88,0,0,0-.46-1.51l-.06-.33c-.28.19-.26.23.07.1a6.29,6.29,0,0,0,1.48-.17l1.73-.2,6.41-.74,13.08-1.51c1.89-.22,1.92-3.22,0-3Z" transform="translate(-104.78 -99.99)"/><path d="M136,100.74q-9.1,17.1-19.46,33.47c-1,1.64,1.56,3.14,2.59,1.51q10.35-16.35,19.46-33.47c.9-1.7-1.69-3.22-2.59-1.51Z" transform="translate(-104.78 -99.99)"/></svg>