<svg id="Layer_1" data-name="Layer 1" xmlns="http://www.w3.org/2000/svg" viewBox="0 0 249 249"><title>arrow</title><path d="M152.5,31a122.5,122.5,0,0,1,86.62,209.12A122.5,122.5,0,1,1,65.88,66.88,121.69,121.69,0,0,1,152.5,31m0-2A124.5,124.5,0,1,0,277,153.5,124.5,124.5,0,0,0,152.5,29Z" transform="translate(-28 -29)"/><path d="M154,244.31a7.29,7.29,0,0,1-5-1.85L47,154.91a5.51,5.51,0,0,1-.11-8.76l10.71-9.66a7.45,7.45,0,0,1,10-.12l86,73.84,84.18-75.9a7.45,7.45,0,0,1,10-.12l10.94,9.39a5.52,5.52,0,0,1,.11,8.77l-99.82,90A7.35,7.35,0,0,1,154,244.31Z" transform="translate(-28 -29)"/><rect x="112" y="45" width="26" height="141"/></svg>